<svg version="1" xmlns="http://www.w3.org/2000/svg" width="1365.333" height="1365.333" viewBox="0 0 1024.000000 1024.000000"><path d="M482.9 12.4c-.2.2-4.9.7-10.4 1-5.5.4-11.1.8-12.5 1.1-1.4.2-4.7.7-7.5.9-5.2.6-9.5 1.1-15.8 2.2-2 .3-4.7.7-6 .8-1.2.2-3.5.6-5.2.9-1.6.4-4.6.9-6.5 1.2-28 4.6-70.5 17.4-102 30.8-1.4.6-2.7 1.1-3 1.2-3.1.8-35.4 16.8-45.8 22.7-15.3 8.6-35.1 21.2-43.8 27.7-1.2.9-3.2 2.3-4.4 3.1-3.7 2.5-15.3 11.2-18.6 13.9-1.7 1.4-5.1 4.2-7.5 6.1-13.1 10.4-38.8 34.9-51.5 49.1-11.9 13.2-13.2 14.8-19 22-3.2 4.1-6.2 7.6-6.5 7.9-.4.3-1.7 2.1-3 4s-4.3 6.1-6.7 9.2c-10.5 14.2-25.6 38.1-34.4 54.3-5.3 9.8-18.8 37.2-18.8 38.1 0 .3-1.1 2.9-2.4 5.8-10.8 23.6-26.9 76.4-31 101.6-.3 1.9-.8 4.5-1 5.6-.6 2.8-1.3 7.7-2.2 13.9-.3 2.7-.8 5.8-.9 6.7-.2.9-.7 4.8-1 8.5-.4 3.7-.9 7.7-1.1 8.8-2.6 13.9-2.5 83.6.1 103 .2 1.6.7 5.2 1 8 .4 2.7.9 6.3 1.1 8 .2 1.6.7 4.8.9 7 .3 2.2 1.5 8.9 2.6 15 1.2 6 2.2 11.9 2.4 13 .2 1.1.6 2.9.8 4 .3 1.1 1.5 6 2.7 11 10.8 46.1 33 99.7 58.3 141 3 4.9 21 32 22.8 34.4 13.1 17.1 17.1 22.1 24.3 30.6 8.8 10.3 12.7 14.5 26.6 28.5 46.3 46.5 95.5 79.9 158.5 107.5 7 3.1 23.8 9.5 33.5 12.8 29.2 9.8 47.8 14.5 78 19.7 32.7 5.5 43.6 6.4 81 6.4 34.6.1 46.3-.4 66-3 74.8-9.6 143.6-34.8 209-76.4 4.7-3 8.7-5.7 9-6.1.3-.3 1.5-1.1 2.6-1.7 3.6-1.9 27.1-19.9 39.4-30.1 15.4-12.8 46-43.5 59.4-59.6 42.4-50.9 72.4-104.4 92.5-165.3 8-24.1 12.8-43.2 18.6-74.2.3-1.6 2.4-15.7 3-20.5.2-1.7.7-5.9 1-9.5.3-3.6 1-10.1 1.5-14.5.8-8.3.6-75.1-.3-79.5-.3-1.4-.8-6.1-1.2-10.4-.4-4.3-.8-8.6-1-9.5-.1-.9-.6-3.9-.9-6.6-.4-2.8-1.1-7.5-1.6-10.5s-1.1-7.1-1.4-9c-1.5-9.7-7.1-34.7-9.7-43.5-1.1-3.9-2.1-7.5-2.3-8-8.1-30.4-26.8-75.7-42.5-102.8-2.8-4.9-5.1-9.1-5.1-9.3 0-.7-12.7-20.9-18.9-29.9-27.3-40.3-63.7-79.7-101.6-110-2.7-2.2-5.2-4.2-5.5-4.5-.8-.9-17.9-13.2-26.5-19.1-36.7-25.2-80.2-46.6-124-61-13-4.3-35.6-10.7-43.5-12.3-12.2-2.6-22.1-4.5-25-5-1.9-.3-4.8-.8-6.5-1.1-5.4-.9-8.9-1.4-14-2-2.7-.4-6.1-.8-7.4-1-1.4-.3-5.4-.7-9-1.1-3.6-.3-8.2-.8-10.1-1.1-4.1-.5-69.6-1.4-70.1-.9z"/></svg>